# xmcd
#
# Track frame offsets:
#	150
#	13792
#	27551
#	38602
#	49679
#	66363
#	83477
#	96148
#	111220
#
# Disc length: 1721 seconds
#
# Revision: 0
# Processed by: cddbd v1.5.1PL0 Copyright (c) Steve Scherf et al.
# Submitted via: dBpowerAMP V4.0
#
DISCID=6b06b709
DTITLE=Ronnie Milsap - Greatest Hits
DYEAR=1980
DGENRE=Country
TTITLE0=( I'd Be ) A Legend In My Time
TTITLE1=( I'm A ) Stand By My Woman Man
TTITLE2=Pure Love
TTITLE3=Daydreams About Night Things
TTITLE4=It Was Almost Like A Song
TTITLE5=Smoky Mountain Rain
TTITLE6=Please Don't Tell Me How The Story Ends
TTITLE7=Back On My Mind Again
TTITLE8=What A Difference You've Made In My Life
EXTD=
EXTT0=
EXTT1=
EXTT2=
EXTT3=
EXTT4=
EXTT5=
EXTT6=
EXTT7=
EXTT8=
PLAYORDER=
